#define icon_width 16
#define icon_height 16
static unsigned char icon_bits[] = {
   0xe0, 0x07, 0x28, 0x14, 0x28, 0x14, 0xfe, 0x7f, 0x14, 0x28, 0xd4, 0x2b,
   0x14, 0x2a, 0x5c, 0x38, 0x10, 0x08, 0xe0, 0x07, 0x40, 0x02, 0x40, 0x02,
   0xc0, 0x03, 0x80, 0x01, 0x80, 0x01, 0x00, 0x00 };
