#define icon_mask_width 16
#define icon_mask_height 16
static unsigned char icon_mask_bits[] = {
   0xe0, 0x07, 0xe8, 0x17, 0xe8, 0x17, 0xfe, 0x7f, 0xfc, 0x3f, 0xfc, 0x3f,
   0xfc, 0x3f, 0xfc, 0x3f, 0xf0, 0x0f, 0xe0, 0x07, 0xc0, 0x03, 0xc0, 0x03,
   0xc0, 0x03, 0x80, 0x01, 0x80, 0x01, 0x00, 0x00 };
